# xmcd CD database file
#
# Track frame offsets:
#	150
#	2745
#	20460
#	42120
#	65900
#
# Disc length: 940 seconds
#
# Revision: 0
# Processed by: cddbd v1.5.1PL2 Copyright (c) Steve Scherf et al.
# Submitted via: CDex 1.51
#
DISCID=3903aa05
DTITLE=a.mia - ミュージック feat. Marky from デリカテッセン
DYEAR=2005
DGENRE=JPop
TTITLE0=Music's Come
TTITLE1=ミュージック feat. Marky from デリカテッセン
TTITLE2=link
TTITLE3=笑顔のままで
TTITLE4=I'm happy 2 be watching the sunset with U
EXTD=YEAR: 2005
EXTT0=
EXTT1=
EXTT2=
EXTT3=
EXTT4=
PLAYORDER=
